<?xml version="1.0" encoding="UTF-8"?>

<svg width="32px" height="32px" viewBox="0 0 32 32" version="1.1" xmlns="http://www.w3.org/2000/svg" xmlns:xlink="http://www.w3.org/1999/xlink">
    <g id="Page-1" stroke="none" stroke-width="1" fill="none" fill-rule="evenodd">
        <g id="Custom-Preset" stroke="#979797">
            <path d="M5.520701,5.38855822 L26.4427461,5.38855822 C27.2171175,5.38855822 27.6043032,5.75213968 27.6043032,6.4793026 C27.6043032,7.20646553 27.2171175,7.57004699 26.4427461,7.57004699 L5.520701,7.57004699 C4.74224558,7.57004699 4.35301786,7.20646553 4.35301786,6.4793026 C4.35301786,5.75213968 4.74224558,5.38855822 5.520701,5.38855822 Z" id="Path"></path>
            <path d="M13.855404,3.38855822 L18.3545198,3.38855822 C19.0393204,3.38855822 19.3817207,3.72189155 19.3817207,4.38855822 C19.3817207,5.05522489 19.0393204,5.38855822 18.3545198,5.38855822 L13.855404,5.38855822 C13.2302144,5.38855822 12.9176196,5.05522489 12.9176196,4.38855822 C12.9176196,3.72189155 13.2302144,3.38855822 13.855404,3.38855822 Z" id="Path"></path>
            <polyline id="Path-2" stroke-linejoin="round" points="7.28229731 7.86088532 9.05988359 29.0365895 22.9216301 29.0365895 24.7425139 7.86088532"></polyline>
            <line x1="16.0124056" y1="10.2451599" x2="15.9786606" y2="26.0973462" id="Path-3" stroke-linecap="round"></line>
            <line x1="20.51" y1="10.2451599" x2="19.9786606" y2="26.0973462" id="Path-3" stroke-linecap="round"></line>
            <line x1="11.51" y1="10.2451599" x2="11.9786606" y2="26.0973462" id="Path-3" stroke-linecap="round"></line>
        </g>
    </g>
</svg>