<?xml version="1.0" encoding="UTF-8"?>
<svg width="32px" height="32px" viewBox="0 0 32 32" version="1.1" xmlns="http://www.w3.org/2000/svg" xmlns:xlink="http://www.w3.org/1999/xlink">
    <g id="Page-1" stroke="none" stroke-width="1" fill="none" fill-rule="evenodd">
        <g id="Group" transform="translate(15.961079, 16.521059) rotate(34.000000) translate(-15.961079, -16.521059) translate(12.961079, 2.021059)" stroke="#979797">
            <path d="M5.08971875,0.116835475 C5.08971875,0.211884661 5.08971875,8.17902753 5.08971875,24.0182641 L2.54485938,28.9687754 L4.69846384e-13,24.0182641 C4.69846384e-13,8.19627906 4.69846384e-13,0.229136198 4.69846384e-13,0.116835475 C4.69846384e-13,-0.0516156106 5.08971875,-0.0257383057 5.08971875,0.116835475 Z" id="Path"></path>
            <line x1="2.84217094e-14" y1="2.93635033" x2="5.08971875" y2="2.93635033" id="Path-2"></line>
            <line x1="2.84217094e-14" y1="4.74196137" x2="5.08971875" y2="4.74196137" id="Path-3"></line>
            <line x1="2.54485938" y1="4.74196137" x2="2.54485938" y2="21.0182641" id="Path-4" stroke-linecap="round"></line>
            <path d="M-1.70530257e-13,24.0182641 C1.12276506,23.6287278 1.97105151,22.6287278 2.54485938,21.0182641 C3.09144169,22.5402108 3.93972815,23.5402108 5.08971875,24.0182641" id="Path-5" stroke-linecap="round"></path>
        </g>
        <g id="Custom-Preset"></g>
    </g>
</svg>